<svg xmlns="http://www.w3.org/2000/svg" viewBox="0 0 32 32">
  <circle cx="16" cy="16" r="16" fill="#0a456a"/>
  <path fill="#ea4e33" d="M15.83,3.91c-6.68,0-12.09,5.41-12.09,12.09h24.18c0-6.68-5.41-12.09-12.09-12.09Z"/>
  <path fill="#ea4e33" d="M4.44,20.02h22.79c.28-.79.48-1.61.59-2.46H3.85c.11.85.31,1.67.59,2.46Z"/>
  <path fill="#ea4e33" d="M6.82,24.04h18.03c.66-.74,1.24-1.56,1.71-2.46H5.11c.47.89,1.04,1.71,1.71,2.46Z"/>
  <path fill="#ea4e33" d="M8.51,25.6c1.88,1.44,4.19,2.33,6.7,2.46h1.25c2.51-.13,4.82-1.02,6.7-2.46h-14.65Z"/>
</svg>
